<?xml version="1.0" encoding="UTF-8"?> <svg xmlns="http://www.w3.org/2000/svg" id="Layer_1" version="1.1" viewBox="0 0 950 340"><defs><style> .st0, .st1 { fill: #fff; } .st0, .st2, .st3 { fill-rule: evenodd; } .st4 { fill: #f6f3ed; } .st2 { fill: #2e5f7a; } .st3 { fill: #b25295; } </style></defs><g><rect class="st4" x="65.03" y="60.3" width="219.41" height="219.41"></rect><g><path class="st2" d="M173.18,211.91c5.22,0,10.22,2.07,13.91,5.76,3.69,3.69,5.76,8.69,5.76,13.91s-2.07,10.22-5.76,13.91c-3.69,3.69-8.69,5.76-13.91,5.76h-15.6v-39.34h15.6Z"></path><path class="st2" d="M173.18,211.91c5.22,0,10.22,2.07,13.91,5.76,3.69,3.69,5.76,8.69,5.76,13.91s-2.07,10.22-5.76,13.91c-3.69,3.69-8.69,5.76-13.91,5.76h-15.6v-39.34h15.6Z"></path><path class="st2" d="M173.18,211.91c5.22,0,10.22,2.07,13.91,5.76,3.69,3.69,5.76,8.69,5.76,13.91s-2.07,10.22-5.76,13.91c-3.69,3.69-8.69,5.76-13.91,5.76h-15.6v-39.34h15.6Z"></path><path class="st3" d="M203.26,200.73c3.69-3.69,8.69-5.76,13.91-5.76s10.22,2.07,13.91,5.76c3.69,3.69,5.76,8.69,5.76,13.91s-2.07,10.22-5.76,13.91l-11.03,11.03-27.82-27.82,11.03-11.03h0Z"></path><path class="st2" d="M216.64,171.56c0-5.22,2.07-10.22,5.76-13.91,3.69-3.69,8.69-5.76,13.91-5.76s10.22,2.07,13.91,5.76c3.69,3.69,5.76,8.69,5.76,13.91v15.6h-39.34v-15.6Z"></path><path class="st3" d="M205.47,141.47c-3.69-3.69-5.76-8.69-5.76-13.91s2.07-10.22,5.76-13.91c3.69-3.69,8.69-5.76,13.91-5.76s10.22,2.07,13.91,5.76l11.03,11.03-27.82,27.82-11.03-11.03Z"></path><path class="st2" d="M176.29,128.09c-5.22,0-10.22-2.07-13.91-5.76s-5.76-8.69-5.76-13.91,2.07-10.22,5.76-13.91c3.69-3.69,8.69-5.76,13.91-5.76h15.6v39.34h-15.6Z"></path><path class="st3" d="M146.2,139.27c-3.69,3.69-8.69,5.76-13.91,5.76s-10.22-2.07-13.91-5.76c-3.69-3.69-5.76-8.69-5.76-13.91s2.07-10.22,5.76-13.91l11.03-11.03,27.82,27.82-11.03,11.03h0Z"></path><path class="st2" d="M132.83,168.44c0,5.22-2.07,10.22-5.76,13.91-3.69,3.69-8.69,5.76-13.91,5.76s-10.22-2.07-13.91-5.76c-3.69-3.69-5.76-8.69-5.76-13.91v-15.6h39.34v15.6Z"></path><path class="st3" d="M144,198.53c3.69,3.69,5.76,8.69,5.76,13.91s-2.07,10.22-5.76,13.91c-3.69,3.69-8.69,5.76-13.91,5.76s-10.22-2.07-13.91-5.76l-11.03-11.03,27.82-27.82,11.03,11.03Z"></path></g></g><g><path class="st0" d="M389.68,205.71c14.35,0,24.36-9.63,24.36-29.65v-1.51c0-19.64-8.69-29.65-23.61-29.65s-23.8,10.39-23.8,30.03v1.51c0,19.64,9.44,29.27,23.04,29.27h0ZM381.56,227.05c-23.98,0-42.87-17.19-42.87-50.05v-1.51c0-32.48,18.7-51.56,43.44-51.56,15.86,0,25.68,6.99,31.16,17v-59.49h27.19v143.53h-27.19v-16.43c-5.1,10.01-17.19,18.51-31.73,18.51Z"></path><path class="st0" d="M525.54,164.88h-44.19c2.08-13.98,10.39-22.1,22.66-22.1,13.03,0,20.59,7.18,21.53,22.1ZM453.2,176.78c0,31.54,21.72,50.24,51.56,50.24,27.01,0,44-11.9,47.21-33.24h-25.87c-1.7,8.31-7.93,13.79-20.59,13.79-14.92,0-23.8-9.44-24.55-25.87h71.2v-7.55c0-35.32-22.66-50.24-48.16-50.24-28.71,0-50.8,20.21-50.8,51.37v1.51h0Z"></path><path class="st0" d="M613.81,205.68c14.35,0,24.36-9.63,24.36-29.65v-1.51c0-19.64-8.69-29.65-23.61-29.65s-23.8,10.39-23.8,30.03v1.51c0,19.64,9.44,29.27,23.04,29.27h.01ZM637.42,258.56v-49.48c-5.1,9.44-17.19,17.94-31.73,17.94-23.98,0-42.87-17.19-42.87-50.05v-1.51c0-32.48,18.7-51.56,43.44-51.56,15.86,0,25.68,6.99,31.16,17v-14.73h27.19v132.39h-27.19Z"></path><path class="st0" d="M860.34,164.88h-44.19c2.08-13.98,10.39-22.1,22.66-22.1,13.03,0,20.58,7.18,21.53,22.1ZM788.01,176.78c0,31.54,21.72,50.24,51.56,50.24,27.01,0,44-11.9,47.22-33.24h-25.87c-1.7,8.31-7.93,13.79-20.58,13.79-14.92,0-23.8-9.44-24.55-25.87h71.2v-7.55c0-35.32-22.67-50.24-48.16-50.24-28.71,0-50.8,20.21-50.8,51.37v1.51h-.02Z"></path><path class="st1" d="M681.44,189.83c0,25.87,14.35,37.2,33.62,37.2,16.24,0,26.25-7.55,31.35-17.56v15.49h27.2v-98.77h-27.2v57.98c0,14.54-9.07,21.72-20.59,21.72s-17.19-6.42-17.19-19.83v-59.87h-27.2v63.64h.01Z"></path></g></svg> 